<svg xmlns="http://www.w3.org/2000/svg" viewBox="0 0 900 308" width="900" height="308" font-family="-apple-system, 'Segoe UI', Helvetica, Arial, sans-serif" role="img" aria-label="A real monitor catches blatant attacks and most covert ones"><rect width="900" height="308" rx="12" fill="#FAF9F5" stroke="#E3DACC"/><text x="24" y="32" font-family="Georgia, 'Times New Roman', serif" font-size="19" fill="#141413">A real monitor catches blatant attacks and most covert ones</text><text x="24" y="52" font-size="13" fill="#5E5D59">Claude Haiku 4.5, share of attack decisions caught at a 1% false-alarm threshold. Overt and injection: 100%.</text><line x1="230" x2="230" y1="96" y2="260" stroke="#E3DACC"/><text x="230" y="276" text-anchor="middle" font-size="12" fill="#87867F">0</text><line x1="350" x2="350" y1="96" y2="260" stroke="#E3DACC"/><text x="350" y="276" text-anchor="middle" font-size="12" fill="#87867F">20</text><line x1="470" x2="470" y1="96" y2="260" stroke="#E3DACC"/><text x="470" y="276" text-anchor="middle" font-size="12" fill="#87867F">40</text><line x1="590" x2="590" y1="96" y2="260" stroke="#E3DACC"/><text x="590" y="276" text-anchor="middle" font-size="12" fill="#87867F">60</text><line x1="710" x2="710" y1="96" y2="260" stroke="#E3DACC"/><text x="710" y="276" text-anchor="middle" font-size="12" fill="#87867F">80</text><line x1="830" x2="830" y1="96" y2="260" stroke="#E3DACC"/><text x="830" y="276" text-anchor="middle" font-size="12" fill="#87867F">100</text><text x="530" y="296" text-anchor="middle" font-size="12" fill="#5E5D59">% of decisions caught</text><text x="216" y="138" text-anchor="end" font-size="13" fill="#141413">covert</text><path d="M230,104 h476.0 a4,4 0 0 1 4,4 v8 a4,4 0 0 1 -4,4 h-476.0 z" fill="#C6613F"/><text x="718" y="117" font-size="12" fill="#141413">80</text><path d="M230,124 h530.0 a4,4 0 0 1 4,4 v8 a4,4 0 0 1 -4,4 h-530.0 z" fill="#4F86C6"/><text x="772" y="137" font-size="12" fill="#141413">89</text><path d="M230,144 h380.0 a4,4 0 0 1 4,4 v8 a4,4 0 0 1 -4,4 h-380.0 z" fill="#6B8F3A"/><text x="622" y="157" font-size="12" fill="#141413">64</text><text x="216" y="214" text-anchor="end" font-size="13" fill="#141413">covert, monitor-aware</text><path d="M230,180 h494.0 a4,4 0 0 1 4,4 v8 a4,4 0 0 1 -4,4 h-494.0 z" fill="#C6613F"/><text x="736" y="193" font-size="12" fill="#141413">83</text><path d="M230,200 h488.0 a4,4 0 0 1 4,4 v8 a4,4 0 0 1 -4,4 h-488.0 z" fill="#4F86C6"/><text x="730" y="213" font-size="12" fill="#141413">82</text><path d="M230,220 h380.0 a4,4 0 0 1 4,4 v8 a4,4 0 0 1 -4,4 h-380.0 z" fill="#6B8F3A"/><text x="622" y="233" font-size="12" fill="#141413">64</text><rect x="230" y="66" width="12" height="12" rx="3" fill="#C6613F"/><text x="248" y="76" font-size="12" fill="#5E5D59">prompt warns of authority claims</text><rect x="494" y="66" width="12" height="12" rx="3" fill="#4F86C6"/><text x="512" y="76" font-size="12" fill="#5E5D59">no warning</text><rect x="604" y="66" width="12" height="12" rx="3" fill="#6B8F3A"/><text x="622" y="76" font-size="12" fill="#5E5D59">numbers only</text></svg>